<svg xmlns="http://www.w3.org/2000/svg" xmlns:xlink="http://www.w3.org/1999/xlink" width="254.172" height="60.958" viewBox="0 0 254.172 60.958">
  <defs>
    <clipPath id="clip-path">
      <path id="Path_38" data-name="Path 38" d="M885.69,434.932a17.839,17.839,0,0,0-15.2,17.586v12.174a40.278,40.278,0,0,1,12.191-9.178c-.053-.96-.082-1.926-.082-2.9a51.752,51.752,0,0,1,3.1-17.683" transform="translate(-870.486 -434.932)" fill="none" clip-rule="evenodd"/>
    </clipPath>
    <linearGradient id="linear-gradient" x1="0.21" y1="0.815" x2="0.79" y2="0.185" gradientUnits="objectBoundingBox">
      <stop offset="0" stop-color="#72bee6"/>
      <stop offset="0.24" stop-color="#53b7e8"/>
      <stop offset="1" stop-color="#008cc3"/>
    </linearGradient>
    <clipPath id="clip-path-2">
      <path id="Path_39" data-name="Path 39" d="M931.149,434.745h-42.89a17.857,17.857,0,0,0-2.569.187,51.752,51.752,0,0,0-3.1,17.683c0,.972.029,1.938.082,2.9a39.984,39.984,0,0,1,17.606-4.056q.678,0,1.351.023a34.41,34.41,0,0,1,9.226-1.254,12.742,12.742,0,0,1,8.476,2.663,8.548,8.548,0,0,1,3.011,5.168,40.414,40.414,0,0,1,8.8,7.868Z" transform="translate(-882.595 -434.745)" fill="none" clip-rule="evenodd"/>
    </clipPath>
    <linearGradient id="linear-gradient-2" y1="0.5" x2="1" y2="0.5" gradientUnits="objectBoundingBox">
      <stop offset="0" stop-color="#1f59a2"/>
      <stop offset="0.44" stop-color="#1d5397"/>
      <stop offset="1" stop-color="#0e3261"/>
    </linearGradient>
    <clipPath id="clip-path-3">
      <path id="Path_40" data-name="Path 40" d="M870.486,464.692v12.942a17.842,17.842,0,0,0,11.921,16.777c-7.123-10.059-5.461-21.976,1.34-30.9a51.973,51.973,0,0,1-1.07-8,40.305,40.305,0,0,0-12.191,9.179" transform="translate(-870.486 -455.513)" fill="none" clip-rule="evenodd"/>
    </clipPath>
    <linearGradient id="linear-gradient-3" x1="0.48" y1="-0.011" x2="0.521" y2="1.038" gradientUnits="objectBoundingBox">
      <stop offset="0" stop-color="#a0d8f7"/>
      <stop offset="0.72" stop-color="#64abdf"/>
      <stop offset="1" stop-color="#519ed7"/>
    </linearGradient>
    <clipPath id="clip-path-4">
      <path id="Path_41" data-name="Path 41" d="M893.682,474.718a27,27,0,0,0,14.767-4.918q6.159-4.456,6.165-10.3,0-5.234-4.693-5.241-5.612,0-10.354,5.969a29.027,29.027,0,0,0-5.885,14.488m7.952-23.238q-.673-.023-1.351-.023a39.984,39.984,0,0,0-17.606,4.056,51.973,51.973,0,0,0,1.07,8A34.012,34.012,0,0,1,901.634,451.48Zm29.515,23.227v-8.782a40.414,40.414,0,0,0-8.8-7.868,10.965,10.965,0,0,1,.169,1.963q0,7.335-8.84,12.988a36.918,36.918,0,0,1-20.33,5.66,16.06,16.06,0,0,0,1.455,7.359,7.985,7.985,0,0,0,3,3.263,10.911,10.911,0,0,0,5.717,1.372q8.826,0,19.461-8.393A72.5,72.5,0,0,0,931.149,474.707Z" transform="translate(-882.677 -451.457)" fill="none" clip-rule="evenodd"/>
    </clipPath>
    <linearGradient id="linear-gradient-4" x1="0.211" y1="0.589" x2="0.766" y2="0.418" gradientUnits="objectBoundingBox">
      <stop offset="0" stop-color="#2868b0"/>
      <stop offset="1" stop-color="#51a1e3"/>
    </linearGradient>
  </defs>
  <g id="Group_1" data-name="Group 1" transform="translate(-870.033 -433.789)">
    <path id="Path_1" data-name="Path 1" d="M884.993,434.539a17.8,17.8,0,0,0-10.184,5.852,17.579,17.579,0,0,0-4.323,11.542V463.3l.053-.056.021-.022.064-.068.011-.01.074-.077v0l.074-.076.012-.012.063-.065.024-.024.051-.053.035-.035.04-.041.047-.048.029-.028.058-.06.018-.017.07-.07.006-.006.076-.076.005,0,.071-.071.017-.017.06-.059.028-.027.048-.048.041-.039.036-.036.052-.05.026-.025.063-.061.014-.013.075-.073,0,0,.078-.074.01-.01.068-.065.022-.02.056-.053.034-.032.044-.042.046-.043.032-.03.058-.054.021-.02.07-.064.009-.009.079-.073,0,0,.076-.07.015-.014.065-.059.027-.024.053-.048.038-.035.041-.037.051-.046.029-.026.064-.057.017-.015.075-.067.005,0,.08-.071.008-.007.073-.065.02-.017.061-.053.032-.028.049-.043.044-.038.037-.032.057-.049.025-.021.069-.06.013-.011.081-.069h0l.082-.069.013-.01.069-.059.025-.021.058-.049.037-.03.046-.038.049-.042.033-.027.062-.052.021-.017.075-.062.008-.006.083-.068.005,0,.079-.064.017-.014.067-.054.029-.024.054-.043.043-.034.041-.033.056-.045.028-.023.069-.053.016-.013.081-.064,0,0,.085-.066.01-.008.075-.058.022-.018.063-.048.035-.027.05-.039.048-.037.038-.028.061-.047.024-.019.074-.056.012-.009.086-.065h0q.641-.482,1.3-.937l.052-.036.05-.034c.169-.117.34-.231.51-.346l.031-.02.382-.251.016-.011.087-.056.1-.067.01-.006.3-.191h0l.1-.063,0,0,.1-.061.008-.005.093-.058.012-.007.09-.055.015-.01.087-.053.019-.011.083-.051.022-.013.08-.048.026-.016.077-.046.029-.018.073-.043.033-.02.07-.041.036-.022.067-.039.04-.024.063-.036.1-.06.048-.028.056-.032.051-.029.053-.03.1-.059.058-.034.046-.025.313-.174.073-.041.032-.017q.734-.4,1.487-.775l0-.073h0l0-.091v0l0-.038v-.006l0-.069h0l0-.092v-.162l0-.047v0l0-.038v-.057l0-.038v-.076h0v-.115h0v-.095h0v-.212h0V453.5h0v-.024h0v-.024h0v-.024h0V453.4h0v-.025h0v-.024h0v-.025h0V453.3h0v-.024h0v-.024h0v-.024h0v-.024h0v-.024h0v-.048h0v-.023h0v-.023h0v-.023h0v-.023h0v-.024h0v-.023h0v-.047h0V452.9h0v-.14h0v-.046h0v-.162h0V452.5h0v-.469a53.267,53.267,0,0,1,.8-9.227l.023-.133,0-.01.022-.123,0-.021.02-.112.006-.032.019-.1.008-.043.017-.09.01-.053.015-.079.012-.064.013-.069.015-.074.011-.058.017-.085.009-.048.019-.095.008-.037.021-.106.006-.026.023-.116,0-.017.025-.126,0-.006.028-.132v0l.027-.127,0-.015.025-.117.006-.025.023-.106.008-.036.021-.1.01-.046.019-.085.013-.057.017-.074.016-.067.014-.064.018-.078.013-.053.02-.088.01-.043.023-.1.008-.032.095-.389h0l.033-.13,0-.01.03-.12.005-.02.028-.11.008-.03.025-.1.011-.04.023-.09.013-.05.021-.079.016-.061.018-.069.019-.071.016-.058.022-.081.012-.048.025-.092.01-.037.028-.1.008-.027.031-.112.005-.017.034-.122,0-.007.036-.128v0l.036-.124,0-.014.033-.115.007-.024.03-.1.01-.034.028-.095.013-.043.025-.084.016-.054.022-.073.02-.065.019-.063.023-.074.016-.054.026-.084.013-.043.029-.094.01-.033.033-.1.007-.023.036-.115,0-.012.04-.125v0l.041-.127,0-.007.038-.119.006-.018.036-.108.009-.028.032-.1.013-.037.03-.089.015-.048.027-.078.019-.058.023-.068.023-.067.02-.058.027-.078.016-.048.031-.087Zm46.622,39.829v-8.639l-.025-.03-.034-.04-.027-.032-.032-.037-.028-.034-.031-.036-.03-.035-.029-.035-.032-.036-.028-.033-.033-.039-.026-.03-.035-.04-.025-.029-.036-.042-.024-.027-.038-.044-.022-.025-.04-.045-.02-.024-.041-.047-.02-.021-.042-.049-.018-.02-.045-.05-.016-.018-.046-.052-.014-.016-.048-.054-.013-.014-.05-.055-.012-.013-.051-.056-.01-.012-.053-.058-.008-.009-.055-.06-.007-.008-.056-.061-.006-.006-.058-.063,0-.005-.059-.064,0,0-.062-.067h0l-.062-.067h0l-.061-.066,0,0-.06-.064,0,0-.059-.063-.005,0-.058-.061-.006-.007-.057-.059-.009-.009-.054-.057-.01-.011-.053-.055-.012-.012-.051-.054-.014-.014-.05-.051-.016-.016-.048-.049-.017-.018-.047-.047-.064-.065-.02-.021-.044-.044-.022-.023-.043-.042-.023-.024-.041-.041-.025-.025-.04-.039-.027-.027-.037-.038-.029-.028-.036-.036-.031-.03-.035-.034-.032-.031-.032-.033-.035-.033-.031-.03-.035-.035-.03-.029-.038-.036-.028-.027-.039-.038-.027-.026-.041-.039-.025-.024-.042-.04-.024-.023-.044-.042-.022-.021-.046-.044-.02-.019-.048-.045-.019-.017-.049-.047-.017-.016-.052-.047-.015-.014-.053-.05-.014-.013-.055-.051-.012-.011-.057-.052-.01-.009-.059-.054-.008-.008-.061-.055-.007-.007-.062-.056-.005,0-.064-.058,0,0-.066-.06h0l-.068-.061-.059-.053-.01-.009-.049-.044-.021-.018-.039-.034-.031-.028-.028-.025-.042-.036-.018-.016-.052-.046-.007-.006-.061-.052,0,0-.058-.05-.013-.011-.047-.041-.024-.02-.036-.031-.034-.03-.026-.022-.045-.038-.015-.013-.056-.048-.005,0-.06-.051-.006,0-.055-.046-.017-.015-.044-.037-.027-.022-.034-.028-.037-.032-.024-.02-.048-.04-.012-.01-.06-.05h0l-.061-.051-.009-.007-.053-.043-.019-.016-.042-.034-.03-.025-.032-.026-.041-.033-.02-.016-.052-.043-.01-.007-.062-.05h0l-.061-.049-.012-.009-.05-.041-.023-.018-.039-.031-.034-.027-.028-.022-.045-.036-.018-.013-.125-.1,0,0-.059-.045-.015-.012-.047-.037-.027-.021-.036-.028-.038-.029-.026-.019-.189-.145-.007-.006-.056-.042-.019-.014-.044-.034-.105-.079-.023-.017-.064-.047-.063-.047h0l-.128-.094-.022-.016-.042-.031-.033-.024-.032-.023-.043-.032-.021-.015-.055-.04-.009-.007h0l-.118-.085-.01-.007-.013-.009-.051-.037-.025-.018-.04-.028-.037-.026-.028-.02-.048-.034-.017-.012-.059-.042-.006,0-.065-.045-.006,0-.059-.042-.017-.012-.049-.033-.028-.02-.037-.026.009.1c.03.344.045.7.045,1.058a12.667,12.667,0,0,1-2.326,7.267,23.329,23.329,0,0,1-6.889,6.3,36.217,36.217,0,0,1-9.813,4.371,41.358,41.358,0,0,1-10.754,1.456,20.593,20.593,0,0,0,.361,3.7,12.028,12.028,0,0,0,1.077,3.2,8.3,8.3,0,0,0,1.26,1.818,7.45,7.45,0,0,0,1.65,1.342h0a8.806,8.806,0,0,0,2.506,1,13.432,13.432,0,0,0,3.123.336,23.594,23.594,0,0,0,9.314-2.1,47.056,47.056,0,0,0,10.306-6.354q2.172-1.707,4.233-3.61Q929.668,476.446,931.615,474.368Zm-47.774-12.175a34.67,34.67,0,0,1,7.651-6.982,35.478,35.478,0,0,1,7.8-3.935l-.11,0h-.018l-.127,0h0l-.125.005h-.021l-.107,0h-.039l-.088,0-.058,0-.069,0-.077,0-.05,0-.095,0-.032,0-.114.007h-.013l-.126.008h-.006l-.121.007-.025,0-.1.007-.044,0-.082,0-.063.005-.064,0-.081.006-.045,0-.1.008-.027,0-.118.009h-.008l-.125.011H897l-.115.01-.029,0-.1.008-.047,0-.078.007-.066.007-.059,0-.085.008-.041,0-.1.011-.022,0-.121.013h0l-.125.014h-.015l-.109.013-.034,0-.091.01-.052.006-.072.009-.071.008-.054.007-.089.011-.035,0-.107.014-.017,0-.124.016h0l-.124.017-.019,0-.1.015-.038,0-.086.012-.055.008-.068.01-.074.011-.05.007-.092.013-.031,0-.11.017-.014,0-.123.019h-.005l-.117.019-.024,0-.1.016-.042.006-.081.014-.059.01-.063.01-.078.014-.045.007-.095.017-.027,0-.114.02h-.008l-.122.022-.01,0-.113.021-.027,0-.094.017-.046.009-.076.015-.063.012-.058.011-.081.016-.041.008-.1.02-.022,0-.117.023h0l-.121.025-.014,0-.107.022-.032.007-.089.019-.049.01-.072.016-.067.015-.053.012-.085.018-.035.008-.1.023-.018,0-.12.028-.138.032-.137.032-.137.033-.137.034-.137.033-.137.034-.136.035-.137.036-.135.035-.136.036-.136.036h0l-.135.036-.136.038-.135.038-.135.038-.135.039-.134.04-.135.039-.134.041-.134.04h0l-.133.041h0l-.135.042-.266.084-.133.043h0l-.133.043h0l-.133.043h0l-.132.044h0l-.132.044h0l-.132.046h0l-.132.045-.263.092h0l-.131.047h0l-.131.047-.131.048-.131.048h0l-.13.049h0l-.13.049h0l-.26.1h0l-.259.1h0l-.129.051h0l-.129.052-.129.051h0l-.384.158h0l-.128.053h0l-.255.108h0l-.254.11h0l-.253.111h0l-.126.056h0l-.126.056h0l-.126.057h0l-.126.058h0l-.125.058h0l-.125.059h0l-.125.059h0l-.125.06h0l0,.06h0l0,.06h0l0,.059h0l0,.059h0l.005.059h0l0,.059h0l0,.06h0l0,.06h0l0,.059h0l0,.059h0l0,.06h0l.005.06h0l0,.06h0l.005.059h0l0,.059h0l.005.06h0l.005.059h0l.005.059h0l.005.059h0l0,.059h0l.005.06h0l.006.059h0l.005.059h0l.005.059h0l.005.059h0l.005.059h0l.005.059h0l.006.059h0l.006.059h0l.005.059h0l.006.059h0l.006.059h0l.005.059.006.059h0l.006.059.006.059h0l.006.059h0l.006.059.006.059h0l.007.059h0l.006.058h0l.006.059h0l.007.059h0l.007.058h0l.006.059h0l.006.059h0l.007.059.007.059h0l.007.058h0l.007.059.006.059h0l.008.058.007.059.007.059h0l.007.059.008.058.007.059.007.059.007.059.008.059.008.058.008.059.008.059.007.059.007.05,0,.013,0,.036,0,.027,0,.023.006.04v.01l.007.05v0l.006.046,0,.017.005.032,0,.032,0,.018.007.045v.005l.007.05v.008l.006.042,0,.022,0,.028.005.035,0,.014.007.049h0l.008.05v.012l.006.038,0,.025,0,.025.005.039,0,.01.008.05v0l.007.047,0,.016.005.033,0,.03,0,.02.007.043v.007l.008.05v.007l.007.042,0,.021.005.029.005.034,0,.015.008.048v0l.008.05v.011l.007.039,0,.024,0,.025.006.038,0,.012.008.05v0l.008.047,0,.015.006.035.005.029,0,.02.007.043.009.057v.006l.008.043,0,.02.006.03.005.033,0,.016.008.047v0l.009.049v.011l.007.039.005.024,0,.026.007.037,0,.012.009.049v0l.009.048,0,.015.007.034.005.029,0,.021.007.041,0,.009.009.049v0l.008.045,0,.018.006.031.005.032,0,.018.008.045v0l.01.05v.009l.008.04,0,.023.005.026.007.036,0,.014.009.049h0l.009.05,0,.013.007.036.005.027ZM894.234,474.1a30.472,30.472,0,0,0,7.586-1.438A24.777,24.777,0,0,0,908.6,469.2a16.487,16.487,0,0,0,4.61-4.769,10.285,10.285,0,0,0,1.517-5.388,5.452,5.452,0,0,0-1.095-3.731,4.207,4.207,0,0,0-3.292-1.2,10.5,10.5,0,0,0-5.3,1.464,17.908,17.908,0,0,0-4.95,4.459l-.017.02a26.98,26.98,0,0,0-3.852,6.622A31.976,31.976,0,0,0,894.234,474.1Zm-23.748-9.621v13.023a17.535,17.535,0,0,0,3.27,10.2,17.911,17.911,0,0,0,7.436,6.029,24.833,24.833,0,0,1-4.029-14.665,28.879,28.879,0,0,1,6.023-16.041l0-.008-.011-.052,0-.011-.01-.049,0-.014-.01-.046,0-.017-.009-.043,0-.019-.008-.041-.005-.023-.008-.038-.005-.025-.007-.034-.005-.029-.007-.032-.006-.031-.006-.03-.007-.033-.005-.027-.007-.036-.005-.024-.008-.039,0-.021-.008-.043,0-.018-.008-.045,0-.015-.009-.049,0-.012-.01-.051,0-.01-.01-.053v-.007l-.011-.057v0l-.011-.059v0l-.011-.06v0l-.011-.059,0,0-.01-.056V461.7l-.01-.054,0-.01-.009-.051,0-.013-.008-.048,0-.015-.008-.045,0-.019-.008-.042,0-.022-.007-.039,0-.025-.007-.036,0-.028-.006-.033-.006-.031,0-.031-.006-.033-.005-.028-.006-.036-.005-.025L882.8,461l0-.022-.007-.042,0-.019-.007-.046,0-.016-.008-.048,0-.013-.008-.051,0-.011-.009-.053v-.008l-.009-.056v0l-.01-.06v0l-.01-.061h0l-.01-.061v0l-.01-.058v-.007l-.009-.055,0-.009-.008-.053,0-.012-.007-.049,0-.015-.007-.047,0-.018-.007-.044,0-.021-.006-.041,0-.023-.006-.038,0-.027-.005-.035-.005-.03,0-.032-.005-.033,0-.029-.005-.035,0-.027-.005-.038,0-.024-.006-.041,0-.021-.006-.045,0-.017-.006-.047,0-.015-.007-.05,0-.012-.007-.053,0-.009-.007-.057v0l-.008-.06v0l-.009-.062-.007-.054v-.009l-.006-.046,0-.018,0-.037,0-.027,0-.027-.005-.037,0-.018-.013-.109h0l-.007-.055v-.009l-.006-.046,0-.018-.005-.037,0-.027,0-.027,0-.037,0-.018-.006-.046v-.009l-.006-.055h0l-.006-.055V458.3l-.007-.063-.005-.037,0-.027,0-.028,0-.037,0-.018-.006-.046v-.009l-.005-.054h0l-.006-.055v-.008l-.006-.046,0-.018-.006-.065,0-.027,0-.037-.006-.064,0-.009-.005-.055h0l-.006-.054v-.009l-.005-.047v-.017l0-.037,0-.027-.006-.065,0-.018-.005-.046v-.009l0-.055h0l-.006-.056v-.009l-.005-.046v-.018l0-.037,0-.027,0-.028,0-.036,0-.019,0-.045v-.01l-.005-.055h0l-.005-.056v-.009l0-.045V456.7l0-.038,0-.027,0-.028,0-.037v-.018l0-.046v-.01l0-.054h0l0-.055v-.009l-.005-.046v-.018l0-.038,0-.027,0-.028,0-.036,0-.019,0-.046v-.01l0-.054h0l0-.055V456l0-.047v-.017l0-.038,0-.027,0-.029,0-.035v-.02l0-.045v-.01l0-.055h0l0-.055a40.589,40.589,0,0,0-6.056,3.764h0l-.1.072v0l-.188.142,0,0-.185.142-.007.006-.086.067-.009.007-.085.066-.011.009-.083.065-.011.01-.082.064-.013.011-.08.063-.015.012-.078.062-.016.014-.094.076-.075.06-.019.016-.165.135-.022.018-.07.058-.023.019-.068.057-.025.021-.249.207-.028.025-.062.053-.03.026-.275.236-.055.047-.036.032-.053.047-.037.033-.052.045-.039.035-.05.044-.041.036-.048.043-.041.038-.048.042-.042.038-.046.041-.044.04-.044.04-.045.041-.043.039-.046.043-.041.038-.048.044-.088.082-.038.035-.051.047-.036.034-.052.049-.035.033-.053.05-.033.031-.054.052-.032.031-.056.052-.03.03-.057.054-.029.028-.057.056-.028.027-.059.057-.026.026-.06.058-.026.025-.061.06-.023.023-.062.062-.022.022-.064.063-.02.021-.065.065-.02.019-.065.066-.018.018-.067.068-.017.017-.152.156-.014.014-.07.072-.012.013-.072.074-.011.011-.072.076-.01.01-.074.078-.008.008-.075.079-.006.008-.076.08-.006.006-.076.082-.005.005-.078.084,0,0-.079.085,0,0-.079.087h0Zm61.129-30.241H888.228q-.656,0-1.285.046c-.349.025-.7.062-1.04.108l-.013.035-.079.223-.015.043-.03.086-.045.13-.018.05-.027.08-.019.053-.025.077-.02.058-.025.072-.043.131-.022.065-.022.065-.022.069-.021.062-.024.072-.018.059c-.085.261-.169.523-.25.786l-.03.1-.01.033-.032.1-.008.029c-.052.171-.1.342-.153.514l0,.015-.035.121,0,.012-.036.125,0,.008-.037.129v0l-.074.266,0,0-.035.13,0,.008-.035.126,0,.011-.033.123,0,.014-.031.12,0,.018-.031.116-.006.022-.029.112-.006.026-.028.109-.008.029-.026.1-.009.034-.025.1-.067.268-.011.046-.022.089-.012.049-.021.087-.012.052-.02.083-.032.136-.014.06-.017.076-.015.063-.016.072-.016.068-.015.068-.016.072-.014.064-.017.076-.013.061-.018.079-.013.057-.017.083-.012.053-.018.087-.011.05-.019.091-.009.046-.02.094-.009.042-.02.1-.008.038-.02.1-.007.035-.022.106-.005.031-.022.111-.006.026-.022.115,0,.022-.023.119,0,.019-.023.123,0,.015-.023.126,0,.012-.024.13,0,.008-.023.134v0l-.025.138a52.5,52.5,0,0,0-.788,9.087v.483h0v.117h0v.046h0v.069h0v.022h0v.068h0v.068h0v.022h0v.022h0V453h0v.022h0v.021h0v.044h0v.022h0v.044h0v.022h0v.045h0v.021h0v.021h0v.021h0v.022h0v.022h0v.022h0v.021h0v.021h0v.021h0l0,.021v.021h0v.021h0v.021h0v.066h0v.066h0v.066h0v.332h0v.045l.012.277.1-.048.02-.01.244-.112h0l.124-.057.006,0,.133-.06.108-.049.024-.01c.222-.1.445-.194.668-.289l.056-.024.078-.033.048-.02.086-.036.039-.017.1-.039.03-.013.1-.042.021-.009c.168-.069.338-.136.507-.2l.014-.005.113-.044.023-.009.1-.041.032-.011.1-.037.041-.016.086-.033.051-.018.077-.03.06-.021.068-.026.069-.025.06-.022.077-.028.051-.019.087-.031.042-.015.1-.034.033-.012.1-.037.024-.008.114-.04.015,0,.124-.043.005,0,.13-.045h0l.126-.043.013-.005.117-.038.022-.008.109-.035.031-.011.1-.032.04-.013.091-.029.049-.016.082-.026.058-.019.072-.022.069-.021.063-.02.078-.024.053-.017.087-.026.045-.014.1-.028.036-.011.1-.032.026-.008.116-.033.017,0,.125-.036.007,0,.133-.037h0l.131-.036.011,0,.122-.034.021-.006.112-.03.03-.009.1-.027.04-.011.094-.025.049-.013.084-.023.059-.015.075-.019.068-.018.066-.017.077-.02.057-.014.087-.022.048-.012.1-.023.038-.01.106-.025.029-.007.115-.028.019,0,.126-.029.009,0,.135-.031a41.651,41.651,0,0,1,9.33-1.054c.175,0,.408,0,.7.008h.632a35.49,35.49,0,0,1,4.655-.951,35.88,35.88,0,0,1,4.815-.325,16.7,16.7,0,0,1,5,.7,11.261,11.261,0,0,1,3.919,2.11,9.461,9.461,0,0,1,2.107,2.465l.013.023a9.176,9.176,0,0,1,1.06,2.841l.016.011.061.041.019.012.136.091.023.016.053.036.025.017.052.035.027.019.05.034.029.02.047.032.032.022.045.031.034.023.043.029.035.026.04.028.039.027.037.026.041.028.035.025.043.03.033.024.045.031.031.022.047.034.028.021.049.034.027.019.051.037.024.017.13.095.021.015.057.041.018.013.059.043.015.012.061.045.014.01.14.1.009.007.067.05.008,0,.069.052.005,0,.071.053,0,0,.073.056h0l.073.057h0l.072.055,0,0,.07.054.005,0,.068.052.008.006.128.1.011.008.011.009.062.048.014.011.058.047.017.012.056.045.018.014.055.043.02.016.052.042.023.018.05.04.024.02.048.038.026.022.046.036.028.024.044.035.03.025.074.06.039.032.035.028.037.031.036.03.036.029.038.032.033.027.04.034.031.026.042.035.029.024.044.037.027.022.046.039.025.022.048.04.022.019.051.043.02.017.052.045.018.016.054.046.016.014.056.048.015.013.057.05.012.01.06.052.01.009.062.054.008.007.063.056.006.006.066.057,0,0,.067.06h0l.069.062.059.052.012.011.045.041.025.023.034.03.037.033.021.019.049.045.009.008.058.053,0,0,.054.05.016.014.042.039.028.026.03.027.04.037.017.016.053.049,0,0,.058.053.007.008.049.046.02.018.038.036.031.03.025.024.044.041.013.012.056.053h0l.056.054.012.011.045.043.023.023.034.032.035.034.021.02.047.046.009.009.056.054,0,0,.053.052.015.014.041.041.026.025.03.029.038.038.017.018.05.049.006.006.055.055.007.006.049.049.018.019.037.037.03.029.025.026.042.042.013.014.053.053,0,0,.055.055.01.01.045.046.021.022.034.034.032.034.022.023.044.045.01.01.055.057h0l.053.055.013.014.041.043.025.026.029.03.036.039.018.018.047.051.006.006.055.057,0,.006.048.051.017.018.036.039.028.03.026.027.039.043.014.015.05.054,0,0,.053.057.009.01.044.048.02.022.033.036.031.034.021.024.043.046.01.012.053.058h0l.052.058.012.013.04.046.023.025.03.033.034.038.017.02.046.051.006.008.052.058.005,0,.047.054Z" fill="none" stroke="#fff" stroke-miterlimit="22.926" stroke-width="0.905"/>
    <g id="Group_1-2" data-name="Group 1" transform="translate(955.36 438.634)">
      <path id="Path_2" data-name="Path 2" d="M982.719,466.161a5.754,5.754,0,0,0,2.1,1.257,7.669,7.669,0,0,0,2.538.419,6.664,6.664,0,0,0,1.306-.123,10.9,10.9,0,0,0,1.453-.419v-3.1h-1.823q-3.056,0-3.055-2.957V445.711h5.562l1.035-3.3h-6.6v-3.775h-4.238v22.6a8.936,8.936,0,0,0,.419,2.833A4.99,4.99,0,0,0,982.719,466.161Z" transform="translate(-956.075 -438.634)" fill="#00a3e0"/>
      <rect id="Rectangle_6" data-name="Rectangle 6" width="1.199" height="5.543" transform="translate(52.486 40.555)" fill="#666867"/>
      <path id="Path_3" data-name="Path 3" d="M1003.849,482.214a1.877,1.877,0,0,0-.313-.3,1.966,1.966,0,0,0-.374-.221,4.524,4.524,0,0,0-.792-.274c-.271-.065-.543-.139-.813-.219-.088-.022-.177-.049-.264-.078a1.056,1.056,0,0,1-.237-.11.63.63,0,0,1-.176-.165.383.383,0,0,1-.071-.23.4.4,0,0,1,.3-.38,2.161,2.161,0,0,1,.764-.115,1.552,1.552,0,0,1,.677.126,1.637,1.637,0,0,1,.467.347l.747-.738a2.422,2.422,0,0,0-.829-.593,2.562,2.562,0,0,0-1.041-.209,4,4,0,0,0-.922.1,2.246,2.246,0,0,0-.715.292,1.386,1.386,0,0,0-.462.478,1.294,1.294,0,0,0-.165.66,1.545,1.545,0,0,0,.231.874,1.623,1.623,0,0,0,.66.555,3.714,3.714,0,0,0,.841.285c.3.067.588.14.853.221a1.98,1.98,0,0,1,.517.231.458.458,0,0,1,.219.407c0,.424-.359.638-1.078.638a2.048,2.048,0,0,1-.885-.155,1.543,1.543,0,0,1-.566-.505l-.89.56a1.991,1.991,0,0,0,.961.919,3.409,3.409,0,0,0,1.325.247,3.782,3.782,0,0,0,.875-.1,2.187,2.187,0,0,0,.747-.318,1.614,1.614,0,0,0,.517-.571,1.772,1.772,0,0,0,.192-.858,1.149,1.149,0,0,0-.081-.44A1.419,1.419,0,0,0,1003.849,482.214Z" transform="translate(-956.075 -438.634)" fill="#666867"/>
      <path id="Path_4" data-name="Path 4" d="M1009.133,476.958a.624.624,0,0,0-.462.175.635.635,0,0,0-.2.463.588.588,0,0,0,.2.461.625.625,0,0,0,.462.176.651.651,0,0,0,.462-.176.588.588,0,0,0,.2-.461.635.635,0,0,0-.2-.463A.65.65,0,0,0,1009.133,476.958Z" transform="translate(-956.075 -438.634)" fill="#666867"/>
      <path id="Path_5" data-name="Path 5" d="M1013.205,464.535a11.9,11.9,0,0,1-.32-2.957V450.836a9.041,9.041,0,0,0-.788-3.893,8.112,8.112,0,0,0-2.144-2.81,9.471,9.471,0,0,0-3.154-1.724,12.29,12.29,0,0,0-3.869-.592,20.823,20.823,0,0,0-2.562.148,13.252,13.252,0,0,0-2.291.493,17.366,17.366,0,0,0-2.169.838q-1.059.492-2.242,1.183l1.824,3.153a18.793,18.793,0,0,1,3.548-1.675,12.376,12.376,0,0,1,3.892-.542,6.882,6.882,0,0,1,4.115,1.257,4.525,4.525,0,0,1,1.6,3.868v2.267h-9.265a8.387,8.387,0,0,0-3.005.542,7.818,7.818,0,0,0-2.513,1.528,7.4,7.4,0,0,0-1.726,2.34,6.907,6.907,0,0,0-.64,2.982,7.7,7.7,0,0,0,.616,3.129,7.2,7.2,0,0,0,1.7,2.415,7.525,7.525,0,0,0,2.538,1.552,8.869,8.869,0,0,0,3.129.542,12.851,12.851,0,0,0,4.953-1.01,21.372,21.372,0,0,0,4.459-2.488,8.431,8.431,0,0,0,.272,1.527,4.106,4.106,0,0,0,.616,1.38h4.534A12.606,12.606,0,0,1,1013.205,464.535Zm-4.558-3.844q-.787.444-1.9,1.035t-2.316,1.159a19.857,19.857,0,0,1-2.366.936,6.852,6.852,0,0,1-2.045.37,4.407,4.407,0,0,1-1.6-.3,4.852,4.852,0,0,1-1.379-.813,3.993,3.993,0,0,1-.986-1.232,3.44,3.44,0,0,1-.37-1.6,3.767,3.767,0,0,1,.3-1.453,3.981,3.981,0,0,1,.789-1.232,3.832,3.832,0,0,1,1.182-.838,3.463,3.463,0,0,1,1.479-.321h9.215Z" transform="translate(-956.075 -438.634)" fill="#00a3e0"/>
      <rect id="Rectangle_7" data-name="Rectangle 7" width="1.243" height="7.643" transform="translate(0 38.455)" fill="#666867"/>
      <path id="Path_6" data-name="Path 6" d="M1118.785,463.452a5.412,5.412,0,0,1-1.774.591,11.672,11.672,0,0,1-1.749.148,11.258,11.258,0,0,1-2.637-.271,7.779,7.779,0,0,1-1.947-.74,7.91,7.91,0,0,1-1.528-1.108,18,18,0,0,1-1.33-1.381l-3.055,1.923a9.487,9.487,0,0,0,4.04,3.967,13.815,13.815,0,0,0,6.21,1.256q4.878,0,7.392-2.217a7.671,7.671,0,0,0,2.513-6.062,4.842,4.842,0,0,0-1.109-3.326,8.166,8.166,0,0,0-2.784-2.021,20.215,20.215,0,0,0-3.6-1.232q-1.92-.468-3.6-.985a12.735,12.735,0,0,1-2.784-1.183,2.1,2.1,0,0,1-1.109-1.9,2.786,2.786,0,0,1,.542-1.774,3.58,3.58,0,0,1,1.355-1.059,6.087,6.087,0,0,1,1.725-.493,12.614,12.614,0,0,1,1.7-.124,7.432,7.432,0,0,1,3.7.789,9.542,9.542,0,0,1,2.218,1.675l2.562-2.513a10.718,10.718,0,0,0-3.794-2.661,11.678,11.678,0,0,0-4.583-.937,15.885,15.885,0,0,0-3.2.345,10.237,10.237,0,0,0-3.08,1.158,7.435,7.435,0,0,0-2.342,2.12,5.4,5.4,0,0,0-.935,3.228,6.091,6.091,0,0,0,1.108,3.868,7.7,7.7,0,0,0,2.76,2.193,15.464,15.464,0,0,0,3.572,1.183q1.923.393,3.574.862a9.784,9.784,0,0,1,2.759,1.207,2.489,2.489,0,0,1,1.109,2.218,3.49,3.49,0,0,1-.542,2.021A3.893,3.893,0,0,1,1118.785,463.452Z" transform="translate(-956.075 -438.634)" fill="#00356c"/>
      <path id="Path_7" data-name="Path 7" d="M1012.674,479.24a1.65,1.65,0,0,0-.484.51h-.066a1.667,1.667,0,0,0-.105-.357c-.047-.113-.1-.225-.159-.335l-1.078.495a1.628,1.628,0,0,1,.165.468,2.859,2.859,0,0,1,.044.533v4.178h1.2v-2.6a4.42,4.42,0,0,1,.044-.594,2.427,2.427,0,0,1,.165-.621,1.3,1.3,0,0,1,.341-.485.838.838,0,0,1,.572-.192,1.052,1.052,0,0,1,.538.165l.418-1.11a2.038,2.038,0,0,0-.912-.242A1.2,1.2,0,0,0,1012.674,479.24Z" transform="translate(-956.075 -438.634)" fill="#666867"/>
      <path id="Path_8" data-name="Path 8" d="M1017.842,478.244h2.419v6.488h1.243v-6.488h2.176l.364-1.155h-6.2Z" transform="translate(-956.075 -438.634)" fill="#666867"/>
      <path id="Path_9" data-name="Path 9" d="M975.814,479.24a1.65,1.65,0,0,0-.484.51h-.066a1.667,1.667,0,0,0-.1-.357c-.047-.113-.1-.225-.16-.335l-1.077.495a1.628,1.628,0,0,1,.165.468,2.939,2.939,0,0,1,.044.533v4.178h1.2v-2.6a4.42,4.42,0,0,1,.044-.594,2.386,2.386,0,0,1,.165-.621,1.3,1.3,0,0,1,.34-.485.838.838,0,0,1,.572-.192,1.053,1.053,0,0,1,.539.165l.418-1.11a2.039,2.039,0,0,0-.913-.242A1.2,1.2,0,0,0,975.814,479.24Z" transform="translate(-956.075 -438.634)" fill="#666867"/>
      <path id="Path_10" data-name="Path 10" d="M998.411,483.468v-2.4a1.855,1.855,0,0,0-.192-.859,1.946,1.946,0,0,0-.517-.632,2.29,2.29,0,0,0-.748-.391,2.985,2.985,0,0,0-.885-.131,4.262,4.262,0,0,0-1.144.143,4.644,4.644,0,0,0-1.056.451l.517.89a4.082,4.082,0,0,1,.8-.324,3.38,3.38,0,0,1,.885-.1,1.265,1.265,0,0,1,.852.274,1.127,1.127,0,0,1,.292.87v.131h-1.935a2.236,2.236,0,0,0-.744.121,1.766,1.766,0,0,0-.6.352,1.576,1.576,0,0,0-.4.561,1.842,1.842,0,0,0-.143.737,1.522,1.522,0,0,0,.159.7,1.712,1.712,0,0,0,.424.538,1.864,1.864,0,0,0,.61.347,2.157,2.157,0,0,0,.721.121,2.409,2.409,0,0,0,1.038-.225,5.659,5.659,0,0,0,.93-.556c.015.1.036.217.065.341a.864.864,0,0,0,.132.308h1.265a2.8,2.8,0,0,1-.247-.61A2.649,2.649,0,0,1,998.411,483.468Zm-1.2-.451c-.118.065-.252.145-.4.236s-.306.178-.467.258a3.837,3.837,0,0,1-.484.2,1.377,1.377,0,0,1-.44.083,1.341,1.341,0,0,1-.6-.122.507.507,0,0,1-.242-.505.741.741,0,0,1,.182-.539.709.709,0,0,1,.533-.187h1.925Z" transform="translate(-956.075 -438.634)" fill="#666867"/>
      <path id="Path_11" data-name="Path 11" d="M972.4,479.789a2.267,2.267,0,0,0-.8-.538,2.836,2.836,0,0,0-1.079-.193,3.02,3.02,0,0,0-1,.165,2.616,2.616,0,0,0-.835.472,2.376,2.376,0,0,0-.582.737,2.269,2.269,0,0,0-.243.957c-.007.081-.011.165-.011.254v.395a2.861,2.861,0,0,0,.715,2.111,3.228,3.228,0,0,0,3.343.435,2.16,2.16,0,0,0,.934-.875l-.989-.406a2.238,2.238,0,0,1-.495.373,1.414,1.414,0,0,1-.649.122,2.438,2.438,0,0,1-.792-.111,1.316,1.316,0,0,1-.511-.3,1.094,1.094,0,0,1-.274-.462,2,2,0,0,1-.083-.588h4.025v-.627a3.29,3.29,0,0,0-.171-1.083A2.272,2.272,0,0,0,972.4,479.789Zm-3.353,1.523a1.075,1.075,0,0,1,.126-.533,1.146,1.146,0,0,1,.335-.374,1.412,1.412,0,0,1,.474-.215,2.2,2.2,0,0,1,.538-.065,1.635,1.635,0,0,1,.545.087,1.354,1.354,0,0,1,.428.242,1.035,1.035,0,0,1,.281.374,1.167,1.167,0,0,1,.1.484Z" transform="translate(-956.075 -438.634)" fill="#666867"/>
      <path id="Path_12" data-name="Path 12" d="M982.532,479.553a2,2,0,0,0-.676-.369,2.8,2.8,0,0,0-.864-.126,1.964,1.964,0,0,0-.4.044,2.291,2.291,0,0,0-.423.131,2.955,2.955,0,0,0-.4.21,1.933,1.933,0,0,0-.335.264h-.066a2.036,2.036,0,0,0-.109-.341,3.064,3.064,0,0,0-.155-.308l-1.077.495a2.01,2.01,0,0,1,.164.478,2.693,2.693,0,0,1,.044.523v4.178h1.2v-4.068a1.324,1.324,0,0,1,.291-.237,1.89,1.89,0,0,1,.358-.17,2.568,2.568,0,0,1,.385-.1,2.019,2.019,0,0,1,.374-.038.987.987,0,0,1,1.1,1.133v3.485h1.2V481a2.089,2.089,0,0,0-.16-.841A1.629,1.629,0,0,0,982.532,479.553Z" transform="translate(-956.075 -438.634)" fill="#666867"/>
      <path id="Path_13" data-name="Path 13" d="M963.057,479.553a2,2,0,0,0-.675-.369,2.814,2.814,0,0,0-.864-.126,1.949,1.949,0,0,0-.4.044,2.278,2.278,0,0,0-.424.131,2.887,2.887,0,0,0-.4.21,1.944,1.944,0,0,0-.336.264h-.066a2.041,2.041,0,0,0-.109-.341,2.691,2.691,0,0,0-.155-.308l-1.077.495a1.967,1.967,0,0,1,.164.478,2.7,2.7,0,0,1,.044.523v4.178h1.2v-4.068a1.331,1.331,0,0,1,.292-.237,1.883,1.883,0,0,1,.357-.17,2.615,2.615,0,0,1,.386-.1,2,2,0,0,1,.373-.038.987.987,0,0,1,1.1,1.133v3.485h1.2V481a2.106,2.106,0,0,0-.159-.841A1.632,1.632,0,0,0,963.057,479.553Z" transform="translate(-956.075 -438.634)" fill="#666867"/>
      <path id="Path_14" data-name="Path 14" d="M991.835,483.138V480.18h.572l.307-.991h-.879v-1.451l-1.2.265v1.186h-.626v.991h.626v3.211a1.644,1.644,0,0,0,.127.676,1.271,1.271,0,0,0,.335.456,1.3,1.3,0,0,0,.49.258,2.033,2.033,0,0,0,.588.083,1.453,1.453,0,0,0,.314-.033,2.538,2.538,0,0,0,.3-.088V483.8h-.275A.594.594,0,0,1,991.835,483.138Z" transform="translate(-956.075 -438.634)" fill="#666867"/>
      <path id="Path_15" data-name="Path 15" d="M988.8,479.789a2.27,2.27,0,0,0-.8-.538,2.827,2.827,0,0,0-1.078-.193,3.016,3.016,0,0,0-1,.165,2.631,2.631,0,0,0-.836.472,2.408,2.408,0,0,0-.583.737,2.283,2.283,0,0,0-.241.957c-.008.081-.011.165-.011.254v.395a2.857,2.857,0,0,0,.715,2.111,3.226,3.226,0,0,0,3.342.435,2.163,2.163,0,0,0,.935-.875l-.99-.406a2.235,2.235,0,0,1-.494.373,1.417,1.417,0,0,1-.649.122,2.438,2.438,0,0,1-.792-.111,1.317,1.317,0,0,1-.511-.3,1.085,1.085,0,0,1-.275-.462,2,2,0,0,1-.082-.588h4.024v-.627a3.29,3.29,0,0,0-.17-1.083A2.313,2.313,0,0,0,988.8,479.789Zm-3.353,1.523a1.064,1.064,0,0,1,.126-.533,1.134,1.134,0,0,1,.335-.374,1.416,1.416,0,0,1,.473-.215,2.215,2.215,0,0,1,.539-.065,1.625,1.625,0,0,1,.544.087,1.359,1.359,0,0,1,.429.242,1.059,1.059,0,0,1,.281.374,1.183,1.183,0,0,1,.1.484Z" transform="translate(-956.075 -438.634)" fill="#666867"/>
      <path id="Path_16" data-name="Path 16" d="M966.224,483.138V480.18h.572l.308-.991h-.88v-1.451l-1.2.265v1.186H964.4v.991h.627v3.211a1.645,1.645,0,0,0,.126.676,1.273,1.273,0,0,0,.336.456,1.3,1.3,0,0,0,.489.258,2.04,2.04,0,0,0,.589.083,1.444,1.444,0,0,0,.313-.033,2.439,2.439,0,0,0,.3-.088V483.8h-.275A.594.594,0,0,1,966.224,483.138Z" transform="translate(-956.075 -438.634)" fill="#666867"/>
      <path id="Path_17" data-name="Path 17" d="M1101.879,479.789a2.275,2.275,0,0,0-.8-.538,2.824,2.824,0,0,0-1.078-.193,3.01,3.01,0,0,0-1,.165,2.631,2.631,0,0,0-.836.472,2.4,2.4,0,0,0-.583.737,2.283,2.283,0,0,0-.242.957c-.007.081-.01.165-.01.254v.395a2.861,2.861,0,0,0,.715,2.111,3.226,3.226,0,0,0,3.342.435,2.168,2.168,0,0,0,.935-.875l-.99-.406a2.261,2.261,0,0,1-.495.373,1.414,1.414,0,0,1-.649.122,2.427,2.427,0,0,1-.791-.111,1.321,1.321,0,0,1-.512-.3,1.1,1.1,0,0,1-.275-.462,2,2,0,0,1-.082-.588h4.024v-.627a3.289,3.289,0,0,0-.169-1.083A2.3,2.3,0,0,0,1101.879,479.789Zm-3.354,1.523a1.085,1.085,0,0,1,.126-.533,1.148,1.148,0,0,1,.336-.374,1.409,1.409,0,0,1,.472-.215,2.227,2.227,0,0,1,.539-.065,1.634,1.634,0,0,1,.545.087,1.343,1.343,0,0,1,.428.242,1.045,1.045,0,0,1,.281.374,1.166,1.166,0,0,1,.1.484Z" transform="translate(-956.075 -438.634)" fill="#666867"/>
      <path id="Path_18" data-name="Path 18" d="M1028.211,482.379l-.275,1.143-.286-1.143-2.078-5.421-1.2.329,2.871,7.445h1.4l2.87-7.445-1.187-.329Z" transform="translate(-956.075 -438.634)" fill="#666867"/>
      <path id="Path_19" data-name="Path 19" d="M1105.288,479.24a1.652,1.652,0,0,0-.484.51h-.066a1.731,1.731,0,0,0-.1-.357c-.048-.113-.1-.225-.16-.335l-1.078.495a1.658,1.658,0,0,1,.165.468,2.95,2.95,0,0,1,.044.533v4.178h1.2v-2.6a4.421,4.421,0,0,1,.044-.594,2.467,2.467,0,0,1,.164-.621,1.31,1.31,0,0,1,.342-.485.837.837,0,0,1,.572-.192,1.053,1.053,0,0,1,.538.165l.418-1.11a2.042,2.042,0,0,0-.913-.242A1.2,1.2,0,0,0,1105.288,479.24Z" transform="translate(-956.075 -438.634)" fill="#666867"/>
      <path id="Path_20" data-name="Path 20" d="M1086.062,479.24a1.652,1.652,0,0,0-.484.51h-.066a1.723,1.723,0,0,0-.1-.357c-.048-.113-.1-.225-.16-.335l-1.077.495a1.654,1.654,0,0,1,.164.468,2.939,2.939,0,0,1,.044.533v4.178h1.2v-2.6a4.608,4.608,0,0,1,.044-.594,2.432,2.432,0,0,1,.165-.621,1.283,1.283,0,0,1,.341-.485.836.836,0,0,1,.572-.192,1.053,1.053,0,0,1,.538.165l.418-1.11a2.038,2.038,0,0,0-.912-.242A1.2,1.2,0,0,0,1086.062,479.24Z" transform="translate(-956.075 -438.634)" fill="#666867"/>
      <path id="Path_21" data-name="Path 21" d="M1094.258,482.434l-.221,1.077-.23-1.077-1.276-3.376-1.089.3,2.023,5.377h1.133l2.024-5.377-1.089-.3Z" transform="translate(-956.075 -438.634)" fill="#666867"/>
      <path id="Path_22" data-name="Path 22" d="M1082.521,476.958a.624.624,0,0,0-.462.175.632.632,0,0,0-.2.463.585.585,0,0,0,.2.461.625.625,0,0,0,.462.176.651.651,0,0,0,.462-.176.592.592,0,0,0,.2-.461.639.639,0,0,0-.2-.463A.65.65,0,0,0,1082.521,476.958Z" transform="translate(-956.075 -438.634)" fill="#666867"/>
      <path id="Path_23" data-name="Path 23" d="M1122.849,476.958a.626.626,0,0,0-.462.175.636.636,0,0,0-.2.463.588.588,0,0,0,.2.461.627.627,0,0,0,.462.176.649.649,0,0,0,.462-.176.588.588,0,0,0,.2-.461.636.636,0,0,0-.2-.463A.649.649,0,0,0,1122.849,476.958Z" transform="translate(-956.075 -438.634)" fill="#666867"/>
      <path id="Path_24" data-name="Path 24" d="M1111.7,482.214a1.914,1.914,0,0,0-.312-.3,1.943,1.943,0,0,0-.375-.221,4.487,4.487,0,0,0-.791-.274c-.271-.065-.543-.139-.814-.219-.088-.022-.177-.049-.264-.078a1.048,1.048,0,0,1-.236-.11.629.629,0,0,1-.176-.165.383.383,0,0,1-.071-.23.4.4,0,0,1,.3-.38,2.159,2.159,0,0,1,.763-.115,1.549,1.549,0,0,1,.677.126,1.629,1.629,0,0,1,.468.347l.747-.738a2.426,2.426,0,0,0-.83-.593,2.555,2.555,0,0,0-1.039-.209,4.016,4.016,0,0,0-.924.1,2.23,2.23,0,0,0-.714.292,1.378,1.378,0,0,0-.462.478,1.294,1.294,0,0,0-.165.66,1.552,1.552,0,0,0,.23.874,1.629,1.629,0,0,0,.66.555,3.734,3.734,0,0,0,.841.285c.3.067.589.14.853.221a1.964,1.964,0,0,1,.517.231.457.457,0,0,1,.22.407c0,.424-.36.638-1.079.638a2.04,2.04,0,0,1-.884-.155,1.546,1.546,0,0,1-.567-.505l-.89.56a2,2,0,0,0,.962.919,3.4,3.4,0,0,0,1.325.247,3.773,3.773,0,0,0,.874-.1,2.183,2.183,0,0,0,.748-.318,1.614,1.614,0,0,0,.517-.571,1.76,1.76,0,0,0,.192-.858,1.13,1.13,0,0,0-.082-.44A1.387,1.387,0,0,0,1111.7,482.214Z" transform="translate(-956.075 -438.634)" fill="#666867"/>
      <rect id="Rectangle_8" data-name="Rectangle 8" width="1.198" height="5.543" transform="translate(166.202 40.555)" fill="#666867"/>
      <path id="Path_25" data-name="Path 25" d="M1114.184,483.138v-6.18l-1.2.329V483.5a1.419,1.419,0,0,0,.1.55,1.244,1.244,0,0,0,.3.435,1.328,1.328,0,0,0,.451.279,1.548,1.548,0,0,0,.566.1,3.3,3.3,0,0,0,.451-.038,2.972,2.972,0,0,0,.441-.094V483.8h-.43A.593.593,0,0,1,1114.184,483.138Z" transform="translate(-956.075 -438.634)" fill="#666867"/>
      <path id="Path_26" data-name="Path 26" d="M1120.815,484.149a2.46,2.46,0,0,1-.077-.681v-4.41l-1.2.341v3.519c-.1.109-.2.216-.3.319a2.959,2.959,0,0,1-.341.28,1.81,1.81,0,0,1-.38.2,1.156,1.156,0,0,1-.429.078,1.169,1.169,0,0,1-.478-.083.621.621,0,0,1-.28-.242.908.908,0,0,1-.126-.379,3.991,3.991,0,0,1-.028-.506v-3.53l-1.2.341v3.441a1.98,1.98,0,0,0,.539,1.529,2.245,2.245,0,0,0,1.572.5,1.528,1.528,0,0,0,.831-.225,3.662,3.662,0,0,0,.676-.556,1.193,1.193,0,0,0,.055.336,1.175,1.175,0,0,0,.143.313h1.264a2.628,2.628,0,0,1-.148-.3A2.073,2.073,0,0,1,1120.815,484.149Z" transform="translate(-956.075 -438.634)" fill="#666867"/>
      <path id="Path_27" data-name="Path 27" d="M1101.309,461.578V450.836a9.041,9.041,0,0,0-.789-3.893,8.1,8.1,0,0,0-2.144-2.81,9.466,9.466,0,0,0-3.153-1.724,12.294,12.294,0,0,0-3.869-.592,20.81,20.81,0,0,0-2.562.148,13.246,13.246,0,0,0-2.292.493,17.29,17.29,0,0,0-2.168.838q-1.061.492-2.242,1.183l1.823,3.153a18.82,18.82,0,0,1,3.548-1.675,12.382,12.382,0,0,1,3.893-.542,6.882,6.882,0,0,1,4.115,1.257,4.528,4.528,0,0,1,1.6,3.868v2.267h-9.265a8.393,8.393,0,0,0-3.006.542,7.829,7.829,0,0,0-2.513,1.528,7.392,7.392,0,0,0-1.725,2.34,6.893,6.893,0,0,0-.64,2.982,7.7,7.7,0,0,0,.615,3.129,7.231,7.231,0,0,0,1.7,2.415,7.534,7.534,0,0,0,2.538,1.552,8.874,8.874,0,0,0,3.13.542,12.847,12.847,0,0,0,4.952-1.01,21.381,21.381,0,0,0,4.46-2.488,8.324,8.324,0,0,0,.271,1.527,4.145,4.145,0,0,0,.616,1.38h4.534a12.6,12.6,0,0,1-1.109-2.711A11.9,11.9,0,0,1,1101.309,461.578Zm-4.238-.887q-.789.444-1.9,1.035t-2.316,1.159a19.845,19.845,0,0,1-2.365.936,6.857,6.857,0,0,1-2.045.37,4.4,4.4,0,0,1-1.6-.3,4.858,4.858,0,0,1-1.38-.813,3.993,3.993,0,0,1-.986-1.232,3.441,3.441,0,0,1-.369-1.6,3.767,3.767,0,0,1,.3-1.453,3.961,3.961,0,0,1,.788-1.232,3.825,3.825,0,0,1,1.183-.838,3.462,3.462,0,0,1,1.478-.321h9.216Z" transform="translate(-956.075 -438.634)" fill="#00356c"/>
      <path id="Path_28" data-name="Path 28" d="M1046.368,483.468v-2.4a1.844,1.844,0,0,0-.193-.859,1.932,1.932,0,0,0-.516-.632,2.3,2.3,0,0,0-.748-.391,2.99,2.99,0,0,0-.885-.131,4.275,4.275,0,0,0-1.145.143,4.656,4.656,0,0,0-1.055.451l.517.89a4.071,4.071,0,0,1,.8-.324,3.382,3.382,0,0,1,.886-.1,1.265,1.265,0,0,1,.852.274,1.127,1.127,0,0,1,.291.87v.131h-1.935a2.235,2.235,0,0,0-.743.121,1.757,1.757,0,0,0-.6.352,1.591,1.591,0,0,0-.4.561,1.842,1.842,0,0,0-.143.737,1.523,1.523,0,0,0,.16.7,1.725,1.725,0,0,0,.423.538,1.867,1.867,0,0,0,.611.347,2.155,2.155,0,0,0,.72.121,2.41,2.41,0,0,0,1.039-.225,5.61,5.61,0,0,0,.929-.556c.015.1.037.217.066.341a.847.847,0,0,0,.132.308h1.265a2.751,2.751,0,0,1-.247-.61A2.6,2.6,0,0,1,1046.368,483.468Zm-1.2-.451c-.118.065-.251.145-.4.236s-.306.178-.467.258a3.9,3.9,0,0,1-.484.2,1.377,1.377,0,0,1-.44.083,1.338,1.338,0,0,1-.6-.122.506.506,0,0,1-.242-.505.737.737,0,0,1,.182-.539.706.706,0,0,1,.533-.187h1.924Z" transform="translate(-956.075 -438.634)" fill="#666867"/>
      <path id="Path_29" data-name="Path 29" d="M1055.182,479.585a2.013,2.013,0,0,0-.66-.39,2.468,2.468,0,0,0-.841-.137,1.946,1.946,0,0,0-.924.2,3.683,3.683,0,0,0-.769.554,1.608,1.608,0,0,0-.7-.593,2.4,2.4,0,0,0-.918-.165,1.275,1.275,0,0,0-.352.055,2.236,2.236,0,0,0-.368.143,2.02,2.02,0,0,0-.336.2,1.531,1.531,0,0,0-.264.247h-.065a2.231,2.231,0,0,0-.11-.341,2.838,2.838,0,0,0-.155-.308l-1.066.495a1.862,1.862,0,0,1,.159.478,3.091,3.091,0,0,1,.039.523v4.178h1.2v-4.068a1.739,1.739,0,0,1,.594-.407,1.808,1.808,0,0,1,.7-.143,1.02,1.02,0,0,1,.687.214.864.864,0,0,1,.248.687v3.717h1.2v-4.068a2.728,2.728,0,0,1,.517-.4,1.2,1.2,0,0,1,.616-.154.892.892,0,0,1,.753.269,1.223,1.223,0,0,1,.2.753v3.6h1.2v-3.706a2.1,2.1,0,0,0-.154-.824A1.712,1.712,0,0,0,1055.182,479.585Z" transform="translate(-956.075 -438.634)" fill="#666867"/>
      <path id="Path_30" data-name="Path 30" d="M1061.861,483.468v-2.4a1.854,1.854,0,0,0-.192-.859,1.929,1.929,0,0,0-.516-.632,2.309,2.309,0,0,0-.748-.391,2.987,2.987,0,0,0-.886-.131,4.254,4.254,0,0,0-1.143.143,4.626,4.626,0,0,0-1.056.451l.517.89a4.1,4.1,0,0,1,.8-.324,3.385,3.385,0,0,1,.885-.1,1.263,1.263,0,0,1,.852.274,1.123,1.123,0,0,1,.292.87v.131h-1.935a2.225,2.225,0,0,0-.742.121,1.771,1.771,0,0,0-.6.352,1.587,1.587,0,0,0-.4.561,1.826,1.826,0,0,0-.143.737,1.522,1.522,0,0,0,.159.7,1.728,1.728,0,0,0,.424.538,1.842,1.842,0,0,0,.61.347,2.155,2.155,0,0,0,.72.121,2.413,2.413,0,0,0,1.039-.225,5.7,5.7,0,0,0,.93-.556,3.43,3.43,0,0,0,.066.341.846.846,0,0,0,.131.308h1.264a2.738,2.738,0,0,1-.246-.61A2.6,2.6,0,0,1,1061.861,483.468Zm-1.2-.451c-.117.065-.25.145-.4.236s-.306.178-.467.258a3.9,3.9,0,0,1-.484.2,1.382,1.382,0,0,1-.44.083,1.341,1.341,0,0,1-.6-.122.507.507,0,0,1-.241-.505.741.741,0,0,1,.18-.539.712.712,0,0,1,.534-.187h1.924Z" transform="translate(-956.075 -438.634)" fill="#666867"/>
      <path id="Path_31" data-name="Path 31" d="M1039.7,479.553a2.019,2.019,0,0,0-.676-.369,2.809,2.809,0,0,0-.864-.126,1.958,1.958,0,0,0-.4.044,2.28,2.28,0,0,0-.424.131,2.943,2.943,0,0,0-.4.21,1.939,1.939,0,0,0-.336.264h-.065a2.141,2.141,0,0,0-.11-.341,3.016,3.016,0,0,0-.154-.308l-1.078.495a1.968,1.968,0,0,1,.165.478,2.692,2.692,0,0,1,.044.523v4.178h1.2v-4.068a1.33,1.33,0,0,1,.292-.237,1.861,1.861,0,0,1,.358-.17,2.573,2.573,0,0,1,.385-.1,2.01,2.01,0,0,1,.373-.038.987.987,0,0,1,1.1,1.133v3.485h1.2V481a2.09,2.09,0,0,0-.16-.841A1.63,1.63,0,0,0,1039.7,479.553Z" transform="translate(-956.075 -438.634)" fill="#666867"/>
      <path id="Path_32" data-name="Path 32" d="M1038.222,467.246V451.132a10.332,10.332,0,0,0-.641-3.672,8.416,8.416,0,0,0-1.873-2.957,8.647,8.647,0,0,0-3.03-1.971,10.945,10.945,0,0,0-4.066-.715,8.758,8.758,0,0,0-3.524.813,7.5,7.5,0,0,0-2.883,2.1h-.3a9.3,9.3,0,0,0-.493-1.527,13.37,13.37,0,0,0-.69-1.381l-3.893,1.824a10.751,10.751,0,0,1,1.134,4.879v18.726h4.237V447.928a8.838,8.838,0,0,1,2.39-1.6,8.549,8.549,0,0,1,3.918-.863,5.355,5.355,0,0,1,3.918,1.528,5.479,5.479,0,0,1,1.552,4.09v16.164Z" transform="translate(-956.075 -438.634)" fill="#00356c"/>
      <path id="Path_33" data-name="Path 33" d="M1070.676,479.585a2.013,2.013,0,0,0-.66-.39,2.468,2.468,0,0,0-.841-.137,1.949,1.949,0,0,0-.924.2,3.709,3.709,0,0,0-.769.554,1.6,1.6,0,0,0-.7-.593,2.4,2.4,0,0,0-.918-.165,1.263,1.263,0,0,0-.351.055,2.241,2.241,0,0,0-.369.143,1.976,1.976,0,0,0-.336.2,1.5,1.5,0,0,0-.264.247h-.066a2.047,2.047,0,0,0-.109-.341,3.26,3.26,0,0,0-.154-.308l-1.067.495a1.825,1.825,0,0,1,.159.478,3.091,3.091,0,0,1,.039.523v4.178h1.2v-4.068a1.739,1.739,0,0,1,.594-.407,1.808,1.808,0,0,1,.7-.143,1.018,1.018,0,0,1,.687.214.864.864,0,0,1,.247.687v3.717h1.2v-4.068a2.733,2.733,0,0,1,.517-.4,1.2,1.2,0,0,1,.616-.154.893.893,0,0,1,.753.269,1.231,1.231,0,0,1,.2.753v3.6h1.2v-3.706a2.083,2.083,0,0,0-.154-.824A1.726,1.726,0,0,0,1070.676,479.585Z" transform="translate(-956.075 -438.634)" fill="#666867"/>
      <path id="Path_34" data-name="Path 34" d="M1076.614,482.214a1.889,1.889,0,0,0-.314-.3,1.962,1.962,0,0,0-.373-.221,4.552,4.552,0,0,0-.792-.274c-.271-.065-.543-.139-.814-.219-.087-.022-.176-.049-.264-.078a1.048,1.048,0,0,1-.236-.11.66.66,0,0,1-.177-.165.383.383,0,0,1-.071-.23.4.4,0,0,1,.3-.38,2.167,2.167,0,0,1,.765-.115,1.547,1.547,0,0,1,.676.126,1.642,1.642,0,0,1,.468.347l.747-.738a2.426,2.426,0,0,0-.83-.593,2.559,2.559,0,0,0-1.039-.209,4.014,4.014,0,0,0-.924.1,2.256,2.256,0,0,0-.715.292,1.383,1.383,0,0,0-.461.478,1.294,1.294,0,0,0-.166.66,1.546,1.546,0,0,0,.231.874,1.623,1.623,0,0,0,.66.555,3.713,3.713,0,0,0,.841.285c.3.067.589.14.853.221a1.966,1.966,0,0,1,.517.231.458.458,0,0,1,.219.407c0,.424-.359.638-1.077.638a2.045,2.045,0,0,1-.885-.155,1.546,1.546,0,0,1-.567-.505l-.89.56a2,2,0,0,0,.962.919,3.4,3.4,0,0,0,1.325.247,3.767,3.767,0,0,0,.874-.1,2.193,2.193,0,0,0,.748-.318,1.613,1.613,0,0,0,.516-.571,1.749,1.749,0,0,0,.194-.858,1.13,1.13,0,0,0-.083-.44A1.414,1.414,0,0,0,1076.614,482.214Z" transform="translate(-956.075 -438.634)" fill="#666867"/>
      <path id="Path_35" data-name="Path 35" d="M1079.208,445.711l1.036-3.3h-6.6v-3.775h-4.238v22.6a8.934,8.934,0,0,0,.419,2.833,4.981,4.981,0,0,0,1.306,2.094,5.737,5.737,0,0,0,2.095,1.257,7.659,7.659,0,0,0,2.537.419,6.665,6.665,0,0,0,1.306-.123,10.96,10.96,0,0,0,1.454-.419v-3.1H1076.7q-3.057,0-3.056-2.957V445.711Z" transform="translate(-956.075 -438.634)" fill="#00356c"/>
      <path id="Path_36" data-name="Path 36" d="M1060.3,461.135a8.58,8.58,0,0,1-2.464,2.243,6.5,6.5,0,0,1-3.352.813q-4.039,0-6.036-1.971t-2-6.308h18.628v-2.218a14.758,14.758,0,0,0-.739-4.78,10.4,10.4,0,0,0-2.194-3.746,10.013,10.013,0,0,0-3.6-2.463,12.719,12.719,0,0,0-4.9-.888,12.933,12.933,0,0,0-4.78.912,10.393,10.393,0,0,0-3.992,2.785,9.447,9.447,0,0,0-1.527,2.192,9.844,9.844,0,0,0-.789,2.243,13.48,13.48,0,0,0-.3,2.291q-.05,1.158-.049,2.39v.542a19.636,19.636,0,0,0,.641,5.2,10.05,10.05,0,0,0,2.069,3.992,9.422,9.422,0,0,0,3.721,2.563,15.179,15.179,0,0,0,5.593.911,12.068,12.068,0,0,0,5.815-1.38,10.086,10.086,0,0,0,3.992-3.794Zm-13.848-9.116a6.064,6.064,0,0,1,.518-2.464,6.381,6.381,0,0,1,1.478-2.1,7.235,7.235,0,0,1,2.292-1.453,8.153,8.153,0,0,1,5.913.024,7.331,7.331,0,0,1,2.266,1.478,6.328,6.328,0,0,1,1.923,4.51v.443h-14.39Z" transform="translate(-956.075 -438.634)" fill="#00356c"/>
      <rect id="Rectangle_9" data-name="Rectangle 9" width="1.199" height="5.543" transform="translate(125.874 40.555)" fill="#666867"/>
    </g>
    <path id="Path_37" data-name="Path 37" d="M977.53,453.694a14.73,14.73,0,0,0-.739-4.78,10.419,10.419,0,0,0-2.193-3.746A10.027,10.027,0,0,0,971,442.7a12.737,12.737,0,0,0-4.9-.888,12.938,12.938,0,0,0-4.78.912,10.466,10.466,0,0,0-3.992,2.785,9.637,9.637,0,0,0-1.527,2.192,9.844,9.844,0,0,0-.789,2.243,13.387,13.387,0,0,0-.295,2.291q-.049,1.158-.05,2.39v.542a19.676,19.676,0,0,0,.641,5.2,10.062,10.062,0,0,0,2.069,3.992,9.429,9.429,0,0,0,3.721,2.563,15.179,15.179,0,0,0,5.593.911,12.068,12.068,0,0,0,5.815-1.38,10.093,10.093,0,0,0,3.992-3.794l-3.745-1.528a8.565,8.565,0,0,1-2.464,2.243,6.493,6.493,0,0,1-3.351.813q-4.041,0-6.037-1.971t-2-6.308H977.53Zm-4.238-1.232H958.9v-.443a6.084,6.084,0,0,1,.518-2.464,6.4,6.4,0,0,1,1.478-2.1,7.274,7.274,0,0,1,2.292-1.453,8.153,8.153,0,0,1,5.913.024,7.336,7.336,0,0,1,2.267,1.478,6.331,6.331,0,0,1,1.922,4.51Z" transform="translate(-0.26)" fill="#00a3e0"/>
    <g id="Group_10" data-name="Group 10" transform="translate(870.486 434.745)">
      <g id="Group_3" data-name="Group 3" transform="translate(0 0.187)">
        <g id="Group_2" data-name="Group 2" clip-path="url(#clip-path)">
          <rect id="Rectangle_10" data-name="Rectangle 10" width="15.204" height="29.76" transform="translate(0 0)" fill="url(#linear-gradient)"/>
        </g>
      </g>
      <g id="Group_5" data-name="Group 5" transform="translate(12.109)">
        <g id="Group_4" data-name="Group 4" clip-path="url(#clip-path-2)">
          <rect id="Rectangle_11" data-name="Rectangle 11" width="48.554" height="31.181" transform="translate(0 0)" fill="url(#linear-gradient-2)"/>
        </g>
      </g>
      <g id="Group_7" data-name="Group 7" transform="translate(0 20.599)">
        <g id="Group_6" data-name="Group 6" clip-path="url(#clip-path-3)">
          <rect id="Rectangle_12" data-name="Rectangle 12" width="13.261" height="38.898" transform="translate(0 0)" fill="url(#linear-gradient-3)"/>
        </g>
      </g>
      <g id="Group_9" data-name="Group 9" transform="translate(12.191 16.543)">
        <g id="Group_8" data-name="Group 8" clip-path="url(#clip-path-4)">
          <rect id="Rectangle_13" data-name="Rectangle 13" width="48.472" height="39.205" transform="translate(0 0)" fill="url(#linear-gradient-4)"/>
        </g>
      </g>
    </g>
  </g>
</svg>
